<svg viewBox="0 0 500 500" fill="none" xmlns="http://www.w3.org/2000/svg">
  <defs>
    <linearGradient id="fekretnaCyan" x1="50" y1="130" x2="330" y2="340" gradientUnits="userSpaceOnUse">
      <stop offset="0%" stop-color="#06b6d4" />
      <stop offset="50%" stop-color="#22d3ee" />
      <stop offset="100%" stop-color="#0284c7" />
    </linearGradient>
    <linearGradient id="fekretnaOrange" x1="450" y1="130" x2="170" y2="340" gradientUnits="userSpaceOnUse">
      <stop offset="0%" stop-color="#f59e0b" />
      <stop offset="60%" stop-color="#f97316" />
      <stop offset="100%" stop-color="#ea580c" />
    </linearGradient>
    <linearGradient id="fekretnaFilament" x1="220" y1="200" x2="280" y2="380" gradientUnits="userSpaceOnUse">
      <stop offset="0%" stop-color="#38bdf8" />
      <stop offset="100%" stop-color="#06b6d4" />
    </linearGradient>
  </defs>
  <path
    d="M 285 325 C 328 275, 328 190, 250 135 C 178 135, 120 145, 95 195 C 65 255, 75 305, 125 330 L 88 348 L 148 335 C 175 335, 195 325, 215 325"
    stroke="url(#fekretnaCyan)"
    stroke-width="16"
    stroke-linecap="round"
    stroke-linejoin="round"
  />
  <path
    d="M 215 325 C 172 275, 172 190, 250 135 C 322 135, 380 145, 405 195 C 435 255, 425 305, 375 330 L 412 348 L 352 335 C 325 335, 305 325, 285 325"
    stroke="url(#fekretnaOrange)"
    stroke-width="16"
    stroke-linecap="round"
    stroke-linejoin="round"
  />
  <g stroke="url(#fekretnaFilament)" stroke-width="13" stroke-linecap="round" stroke-linejoin="round">
    <line x1="236" y1="238" x2="236" y2="325" />
    <line x1="264" y1="238" x2="264" y2="325" />
    <path d="M 236 238 C 236 215, 210 215, 210 230 C 210 245, 236 245, 250 245" />
    <path d="M 264 238 C 264 215, 290 215, 290 230 C 290 245, 264 245, 250 245" />
    <line x1="215" y1="344" x2="285" y2="344" />
    <line x1="222" y1="362" x2="278" y2="362" />
    <line x1="234" y1="380" x2="266" y2="380" stroke-width="14" />
  </g>
</svg>
